<svg width="397" height="229" viewBox="0 0 397 229" fill="none" xmlns="http://www.w3.org/2000/svg">
<path d="M396.541 160.083C397.968 156.194 395.972 151.885 392.083 150.459L328.712 127.213C324.823 125.787 320.514 127.783 319.088 131.671C317.661 135.56 319.657 139.869 323.546 141.296L379.876 161.958L359.213 218.288C357.787 222.177 359.783 226.486 363.671 227.912C367.56 229.339 371.869 227.343 373.296 223.454L396.541 160.083ZM0.112988 7.93142C27.0288 51.659 78.7196 111.847 146.746 150.652C215.021 189.598 300.151 207.157 392.653 164.305L386.347 150.695C299.249 191.043 219.296 174.768 154.179 137.623C88.8137 100.336 38.8045 42.1743 12.887 0.0685775L0.112988 7.93142Z" fill="#203541"/>
</svg>
