<svg width="479" height="215" viewBox="0 0 479 215" fill="none" xmlns="http://www.w3.org/2000/svg">
<path d="M450.988 214.225C454.978 215.336 459.114 213.003 460.225 209.012L478.336 143.987C479.447 139.997 477.114 135.861 473.123 134.75C469.133 133.639 464.997 135.972 463.886 139.963L447.787 197.763L389.987 181.664C385.997 180.553 381.861 182.886 380.75 186.877C379.639 190.867 381.972 195.003 385.963 196.114L450.988 214.225ZM0.815006 15.4977C57.5913 16.8986 148.312 28.4469 235.365 58.5019C322.613 88.6239 404.806 136.856 446.468 210.686L459.532 203.314C415.194 124.744 328.804 74.8927 240.26 44.3231C151.522 13.6864 59.2421 1.93475 1.18499 0.502282L0.815006 15.4977Z" fill="#203541"/>
</svg>
