<svg width="191" height="309" viewBox="0 0 191 309" fill="none" xmlns="http://www.w3.org/2000/svg">
<path d="M0.916744 264.907C-1.0677 268.543 0.271017 273.099 3.90685 275.083L63.1562 307.422C66.792 309.406 71.3481 308.067 73.3326 304.432C75.317 300.796 73.9783 296.24 70.3425 294.255L17.6764 265.51L46.4216 212.844C48.4061 209.208 47.0673 204.652 43.4315 202.667C39.7957 200.683 35.2395 202.022 33.2551 205.658L0.916744 264.907ZM173.075 3.05815C177.819 36.3455 175.164 89.57 151.638 140.11C128.245 190.364 84.1555 238.159 5.38568 261.304L9.61432 275.696C92.8445 251.241 140.172 200.286 165.237 146.44C190.169 92.88 193.014 36.6545 187.925 0.941851L173.075 3.05815Z" fill="#203541"/>
</svg>
