<svg width="262" height="185" viewBox="0 0 262 185" fill="none" xmlns="http://www.w3.org/2000/svg">
<path d="M-125.192 123.273C-128.181 126.14 -128.28 130.888 -125.412 133.877L-78.6849 182.589C-75.8175 185.578 -71.0698 185.677 -68.0806 182.809C-65.0914 179.942 -64.9927 175.194 -67.8602 172.205L-109.396 128.906L-66.0967 87.3703C-63.1076 84.5029 -63.0089 79.7552 -65.8763 76.766C-68.7437 73.7768 -73.4914 73.6782 -76.4806 76.5456L-125.192 123.273ZM30.8611 37.8935L38.3508 37.5009C38.1518 33.7029 35.1414 30.6551 31.3461 30.4092C27.5508 30.1632 24.1723 32.797 23.4847 36.5375L30.8611 37.8935ZM37.3402 161.527L29.8504 161.92C30.046 165.651 32.9584 168.669 36.6805 168.998C40.4025 169.327 43.7988 166.865 44.6452 163.226L37.3402 161.527ZM73.0548 7.96125L80.3884 6.3899C79.6526 2.95577 76.6322 0.492148 73.1202 0.461532C69.6083 0.430924 66.5454 2.84153 65.7498 6.26232L73.0548 7.96125ZM260.691 102.217C260.624 98.0751 257.212 94.772 253.071 94.8389L185.579 95.9296C181.438 95.9966 178.135 99.4082 178.202 103.55C178.268 107.691 181.68 110.995 185.822 110.928L245.814 109.958L246.783 169.95C246.85 174.092 250.262 177.395 254.404 177.328C258.545 177.261 261.848 173.85 261.781 169.708L260.691 102.217ZM-120.156 136.184C-97.071 136.664 -61.6524 132.571 -29.9882 118.567C1.77242 104.52 30.7515 79.9741 38.2375 39.2494L23.4847 36.5375C17.2106 70.6691 -6.96397 91.9823 -36.0554 104.849C-65.2434 117.758 -98.3753 121.633 -119.844 121.187L-120.156 136.184ZM23.3714 38.286L29.8504 161.92L44.8299 161.135L38.3508 37.5009L23.3714 38.286ZM44.6452 163.226L80.3599 9.66018L65.7498 6.26232L30.0351 159.828L44.6452 163.226ZM65.7213 9.5326C74.0124 48.2273 93.2683 100.774 124.909 129.938C140.998 144.768 160.758 153.947 183.961 151.455C206.896 148.992 231.746 135.271 258.58 107.555L247.803 97.121C222.263 123.501 200.458 134.597 182.359 136.541C164.529 138.456 148.876 131.63 135.075 118.909C106.935 92.9709 88.4971 44.2338 80.3884 6.3899L65.7213 9.5326Z" fill="#FFD933"/>
</svg>
