<svg width="194" height="348" viewBox="0 0 194 348" fill="none" xmlns="http://www.w3.org/2000/svg">
<path d="M23.5471 0.661298C19.494 -0.19313 15.5157 2.39987 14.6613 6.45292L0.7376 72.5012C-0.116827 76.5543 2.47617 80.5326 6.52922 81.387C10.5823 82.2414 14.5606 79.6485 15.415 75.5954L27.7916 16.8858L86.5012 29.2624C90.5543 30.1168 94.5326 27.5238 95.387 23.4708C96.2414 19.4177 93.6485 15.4394 89.5954 14.585L23.5471 0.661298ZM182 81.5L186.544 87.4671C189.569 85.1631 190.392 80.9589 188.457 77.6846C186.522 74.4103 182.443 73.1025 178.965 74.6415L182 81.5ZM83.5 156.5L78.9565 150.533C75.9836 152.796 75.1305 156.903 76.9557 160.164C78.7809 163.424 82.7276 164.844 86.2115 163.493L83.5 156.5ZM230.5 99.5L235.93 104.674C238.352 102.131 238.686 98.2481 236.733 95.3292C234.78 92.4102 231.063 91.2376 227.789 92.5073L230.5 99.5ZM258.325 307.628C261.709 305.239 262.516 300.56 260.128 297.175L221.207 242.027C218.818 238.642 214.139 237.835 210.754 240.224C207.37 242.612 206.563 247.292 208.951 250.676L243.548 299.697L194.527 334.293C191.142 336.682 190.335 341.362 192.724 344.746C195.112 348.13 199.792 348.937 203.176 346.549L258.325 307.628ZM15.7168 12.0953C28.3248 31.4391 51.6585 58.3976 81.0667 76.6704C110.565 94.9989 147.17 105.115 185.035 88.3585L178.965 74.6415C147.23 88.6851 116.002 80.7178 88.9833 63.9296C61.8748 47.0857 40.0085 21.8943 28.2832 3.9047L15.7168 12.0953ZM177.456 75.5329L78.9565 150.533L88.0435 162.467L186.544 87.4671L177.456 75.5329ZM86.2115 163.493L233.211 106.493L227.789 92.5073L80.7885 149.507L86.2115 163.493ZM225.07 94.326C197.77 122.974 165.202 168.486 158.93 211.057C155.741 232.704 159.288 254.201 174.418 271.969C189.373 289.531 214.709 302.333 252.725 308.891L255.275 294.109C219.091 287.867 197.64 276.103 185.838 262.244C174.212 248.591 171.034 231.812 173.77 213.243C179.348 175.381 209.23 132.692 235.93 104.674L225.07 94.326Z" fill="#FFD933"/>
</svg>
