<svg width="259" height="213" viewBox="0 0 259 213" fill="none" xmlns="http://www.w3.org/2000/svg">
<path d="M219.119 3.78558C216.797 0.355617 212.134 -0.542408 208.704 1.77979L152.809 39.6222C149.379 41.9444 148.481 46.6075 150.803 50.0374C153.126 53.4674 157.789 54.3654 161.219 52.0432L210.903 18.4055L244.54 68.0896C246.863 71.5195 251.526 72.4176 254.956 70.0954C258.386 67.7732 259.284 63.1101 256.961 59.6801L219.119 3.78558ZM199.769 106.626L192.721 109.191C194.005 112.719 197.7 114.755 201.368 113.954C205.037 113.153 207.548 109.763 207.244 106.021L199.769 106.626ZM178.316 47.6668L185.364 45.1024C184.162 41.7974 180.824 39.7719 177.337 40.231C173.85 40.69 171.151 43.5103 170.845 47.0139L178.316 47.6668ZM97.7951 176.31L90.6813 178.685C91.3836 180.788 92.9804 182.473 95.043 183.286C97.1055 184.1 99.4223 183.959 101.371 182.902L97.7951 176.31ZM93.2822 162.796L90.6063 155.789C86.8526 157.223 84.8957 161.36 86.1684 165.171L93.2822 162.796ZM186.218 127.301L188.893 134.307C192.731 132.841 194.675 128.562 193.255 124.708C191.835 120.854 187.579 118.859 183.709 120.233L186.218 127.301ZM90.7939 111.622L97.4811 108.226C96.3315 105.962 94.1147 104.434 91.5901 104.164C89.0656 103.895 86.5761 104.921 84.9745 106.891L90.7939 111.622ZM7.79037 205.311C8.21536 209.431 11.9 212.427 16.0203 212.002L83.1641 205.076C87.2843 204.651 90.28 200.966 89.855 196.846C89.43 192.726 85.7453 189.73 81.6251 190.155L21.9417 196.311L15.7857 136.628C15.3607 132.508 11.676 129.512 7.55576 129.937C3.43548 130.362 0.439858 134.047 0.864843 138.167L7.79037 205.311ZM205.544 6.57199C203.049 19.5246 199.397 40.0148 196.539 59.4498C195.11 69.1643 193.87 78.6786 193.075 86.887C192.293 94.9466 191.888 102.226 192.293 107.232L207.244 106.021C206.956 102.465 207.227 96.3522 208.004 88.3347C208.768 80.466 209.97 71.2186 211.379 61.6324C214.198 42.4662 217.81 22.2 220.273 9.40861L205.544 6.57199ZM206.817 104.062L185.364 45.1024L171.268 50.2312L192.721 109.191L206.817 104.062ZM170.845 47.0139C169.627 60.9454 164.302 84.2741 152.223 107.886C140.168 131.451 121.623 154.852 94.219 169.717L101.371 182.902C132.15 166.206 152.566 140.151 165.577 114.718C178.564 89.3309 184.407 64.1187 185.788 48.3197L170.845 47.0139ZM104.909 173.934L100.396 160.42L86.1684 165.171L90.6813 178.685L104.909 173.934ZM95.9582 169.802L188.893 134.307L183.542 120.294L90.6063 155.789L95.9582 169.802ZM183.709 120.233C171.98 124.396 153.375 128.615 135.968 127.852C118.407 127.081 104.191 121.44 97.4811 108.226L84.1068 115.018C94.4526 135.391 115.598 141.973 135.31 142.837C155.175 143.708 175.754 138.973 188.726 134.369L183.709 120.233ZM84.9745 106.891L9.43136 199.81L21.0702 209.272L96.6134 116.353L84.9745 106.891Z" fill="#FFD933"/>
</svg>
