<svg width="335" height="62" viewBox="0 0 335 62" fill="none" xmlns="http://www.w3.org/2000/svg">
<path d="M33.9645 53.0355C35.9171 54.9882 39.0829 54.9882 41.0355 53.0355L72.8553 21.2157C74.808 19.2631 74.808 16.0973 72.8553 14.1447C70.9027 12.192 67.7369 12.192 65.7843 14.1447L37.5 42.4289L9.21573 14.1447C7.26311 12.192 4.09728 12.192 2.14466 14.1447C0.192039 16.0973 0.192039 19.2631 2.14466 21.2157L33.9645 53.0355ZM37.5 15.5L39.8601 11.0921C38.3105 10.2624 36.439 10.3073 34.931 11.2104C33.423 12.1136 32.5 13.7422 32.5 15.5L37.5 15.5ZM101 49.5L98.6399 53.9079C99.9772 54.624 101.567 54.6942 102.963 54.0987C104.358 53.5033 105.407 52.3066 105.816 50.8455L101 49.5ZM110.5 15.5L112.95 11.1412C111.612 10.3892 110.002 10.2935 108.584 10.8815C107.167 11.4695 106.097 12.6762 105.684 14.1545L110.5 15.5ZM171 49.5L168.55 53.8588C169.888 54.6108 171.498 54.7065 172.916 54.1185C174.333 53.5305 175.403 52.3238 175.816 50.8455L171 49.5ZM180.5 15.5L182.258 10.8194C180.946 10.3265 179.488 10.4069 178.238 11.041C176.988 11.6751 176.062 12.8046 175.684 14.1545L180.5 15.5ZM271 49.5L269.242 54.1806C270.489 54.6491 271.871 54.6006 273.082 54.0458C274.294 53.4909 275.233 52.4757 275.693 51.2253L271 49.5ZM283.5 15.5L286.451 11.4638C285.184 10.5374 283.556 10.2597 282.053 10.7139C280.551 11.1681 279.349 12.3015 278.807 13.7747L283.5 15.5ZM330.767 54.4408C333.496 54.0171 335.365 51.4615 334.941 48.7328L328.036 4.26569C327.612 1.53697 325.057 -0.331608 322.328 0.0921068C319.599 0.515822 317.731 3.07138 318.154 5.8001L324.292 45.3264L284.766 51.464C282.037 51.8878 280.168 54.4433 280.592 57.172C281.016 59.9008 283.571 61.7693 286.3 61.3456L330.767 54.4408ZM42.5 49.5V15.5H32.5V49.5H42.5ZM35.1399 19.9079L98.6399 53.9079L103.36 45.0921L39.8601 11.0921L35.1399 19.9079ZM105.816 50.8455L115.316 16.8455L105.684 14.1545L96.1844 48.1545L105.816 50.8455ZM108.05 19.8588L168.55 53.8588L173.45 45.1412L112.95 11.1412L108.05 19.8588ZM175.816 50.8455L185.316 16.8455L175.684 14.1545L166.184 48.1545L175.816 50.8455ZM178.742 20.1806L269.242 54.1806L272.758 44.8194L182.258 10.8194L178.742 20.1806ZM275.693 51.2253L288.193 17.2253L278.807 13.7747L266.307 47.7747L275.693 51.2253ZM280.549 19.5362L327.049 53.5362L332.951 45.4638L286.451 11.4638L280.549 19.5362Z" fill="#FFD933"/>
</svg>
